<svg width="17" height="17" viewBox="0 0 17 17" fill="none" xmlns="http://www.w3.org/2000/svg">
<path d="M15.4063 14.655L11.3943 10.643C12.3584 9.48562 12.8391 8.00105 12.7366 6.49818C12.634 4.99531 11.9559 3.58985 10.8435 2.57417C9.73104 1.55848 8.26985 1.01078 6.76387 1.045C5.25789 1.07922 3.82308 1.69272 2.75792 2.75788C1.69275 3.82305 1.07925 5.25786 1.04503 6.76384C1.01081 8.26982 1.55851 9.73101 2.5742 10.8435C3.58988 11.9559 4.99534 12.6339 6.49821 12.7365C8.00108 12.8391 9.48565 12.3583 10.6431 11.3942L14.6551 15.4062L15.4063 14.655ZM2.12502 6.90624C2.12502 5.96059 2.40543 5.03619 2.9308 4.24992C3.45617 3.46364 4.2029 2.85082 5.07656 2.48894C5.95022 2.12705 6.91157 2.03237 7.83904 2.21686C8.76651 2.40134 9.61845 2.85671 10.2871 3.52538C10.9558 4.19405 11.4112 5.04599 11.5956 5.97346C11.7801 6.90093 11.6854 7.86228 11.3236 8.73594C10.9617 9.6096 10.3489 10.3563 9.56259 10.8817C8.77631 11.4071 7.85191 11.6875 6.90627 11.6875C5.63863 11.6861 4.42332 11.1819 3.52696 10.2855C2.63061 9.38918 2.12642 8.17387 2.12502 6.90624Z" fill="#1E1E2E"/>
</svg>
